# xmcd CD database file generated by freedbAccess_ocx
#
# Track frame offsets:
#       150
#       15723
#       32770
#       49772
#       66064
#       83169
#       98453
#       117006
#       132118
#       148327
#       162538
#       176551
#       191002
#       207644
#       222034
#       236229
#       248251
#       263158
#       276110
#       289960
#
# Disc length: 4089 seconds
#
# Revision: 0
# Processed by: cddbd v1.5.2PL0 Copyright (c) Steve Scherf et al.
# Submitted via: CDnGo 2.00
#
DISCID=260ff714
DTITLE=Andy Borg - Das Beste
DYEAR=2013
DGENRE=Country
TTITLE0=Adios Amor
TTITLE1=Die berühmten drei Worte
TTITLE2=Santa Maria
TTITLE3=Was hab ich nicht alles verlorn'
TTITLE4=Ich will deine Tränen weinen
TTITLE5=Für eine Nacht gehörst du mir
TTITLE6=Die Fischer von San Juan
TTITLE7=Wahre Liebe
TTITLE8=Zum Teufel mit der Einsamkeit
TTITLE9=Herz an Herz
TTITLE10=Das ist mir zu gefährlich
TTITLE11=Sie waren Freunde
TTITLE12=Liebe total
TTITLE13=Arrivederci Claire
TTITLE14=Diese eine große Liebe
TTITLE15=Ich will nicht wissen wie du heißt
TTITLE16=Sommerglücksgefühl
TTITLE17=Träumer, Tramps und Clowns
TTITLE18=Memories Of You
TTITLE19=Auf Wiedersehen Cherie
EXTD=
EXTT0=
EXTT1=
EXTT2=
EXTT3=
EXTT4=
EXTT5=
EXTT6=
EXTT7=
EXTT8=
EXTT9=
EXTT10=
EXTT11=
EXTT12=
EXTT13=
EXTT14=
EXTT15=
EXTT16=
EXTT17=
EXTT18=
EXTT19=
PLAYORDER=
